<svg xmlns="http://www.w3.org/2000/svg" viewBox="0 0 283.46 150.08" enable-background="new 0 0 283.46 150.08"><g fill-rule="evenodd" clip-rule="evenodd" fill="#231F20"><path d="M32.95 118.02l-3.75-7.17c2.18-.37 3.57-1.87 3.57-4.18 0-2.71-1.92-4.17-4.44-4.17h-5.9v15.51h1.18v-7.15h4.27l3.71 7.15h1.36zm-1.35-11.33c0 2.13-1.44 3.14-3.42 3.14h-4.58v-6.28h4.58c1.98 0 3.42 1 3.42 3.14zM50.07 118.02v-1.05h-8.23v-6.25h7.01v-1.04h-7.01v-6.13h8.23v-1.05h-9.41v15.52zM68.2 110.04c0-2.09.06-4.56-1.5-6.12-.92-.92-2.27-1.42-3.88-1.42h-5.21v15.51h5.21c1.61 0 2.96-.5 3.88-1.42 1.56-1.56 1.5-4.45 1.5-6.55zm-1.18 0c0 1.72.09 4.47-1.16 5.73-.89.91-2.09 1.2-3.33 1.2h-3.74v-13.42h3.74c1.25 0 2.45.29 3.33 1.2 1.25 1.26 1.16 3.57 1.16 5.29zM95.19 118.02v-1.05h-8.23v-6.25h7.01v-1.04h-7.01v-6.13h8.23v-1.05h-9.42v15.52zM111.84 113.86c0-1.25-.5-2.31-1.36-3.01-.65-.55-1.3-.81-2.76-1.02l-1.68-.26c-.87-.13-1.76-.5-2.31-.96-.54-.46-.8-1.13-.8-2.02 0-1.96 1.35-3.21 3.6-3.21 1.85 0 2.81.59 3.77 1.44l.76-.76c-1.33-1.15-2.56-1.67-4.47-1.67-2.96 0-4.82 1.65-4.82 4.25 0 1.2.4 2.16 1.22 2.86.65.56 1.59.96 2.77 1.13l1.81.29c1.26.2 1.67.35 2.24.83.56.51.85 1.27.85 2.18 0 2.02-1.55 3.21-3.99 3.21-1.87 0-3.01-.44-4.4-1.83l-.83.83c1.41 1.41 2.86 2.04 5.17 2.04 3.22-.04 5.23-1.71 5.23-4.32zM129.82 106.97c0-2.83-2.01-4.47-4.68-4.47h-5.69v15.51h1.17v-6.58h4.51c2.68.01 4.69-1.63 4.69-4.46zm-1.19 0c0 2.33-1.5 3.42-3.63 3.42h-4.38v-6.84h4.38c2.13 0 3.63 1.09 3.63 3.42zM146.42 118.02l-5.71-15.51h-1.05l-5.71 15.51h1.26l1.35-3.77h7.24l1.35 3.77h1.27zm-2.99-4.82h-6.49l3.25-9.13 3.24 9.13zM161.97 99.65l-.66-.63c-.65.65-.98.71-1.29.71-.44 0-.75-.18-1.21-.45-.52-.33-.87-.52-1.51-.52-.44 0-.94.05-1.94 1.05l.65.63c.68-.67.94-.71 1.29-.71.44 0 .81.21 1.22.45.48.29.9.52 1.5.52.4-.01.95-.05 1.95-1.05zm2.4 18.37v-15.52h-1.17v13.44l-8.96-13.44h-1.17v15.51h1.17v-13.48l8.96 13.48h1.17zM183.1 110.26c0-3.52-.02-4.88-1.44-6.3-1.02-1.02-2.41-1.59-3.87-1.59s-2.86.56-3.88 1.59c-1.42 1.42-1.44 2.79-1.44 6.3s.02 4.88 1.44 6.29c1.02 1.02 2.42 1.59 3.88 1.59s2.85-.56 3.87-1.59c1.42-1.41 1.44-2.78 1.44-6.29zm-1.18 0c0 3.33-.09 4.53-1.2 5.64-.78.78-1.82 1.2-2.94 1.2-1.11 0-2.16-.42-2.94-1.2-1.11-1.11-1.2-2.31-1.2-5.64 0-3.34.09-4.53 1.2-5.64.79-.79 1.83-1.21 2.94-1.21 1.11 0 2.15.42 2.94 1.21 1.11 1.11 1.2 2.3 1.2 5.64zM200.62 118.02v-1.05h-8.24v-14.47h-1.17v15.52zM217.98 118.02l-5.71-15.51h-1.05l-5.71 15.51h1.26l1.36-3.77h7.23l1.36 3.77h1.26zm-2.98-4.82h-6.5l3.25-9.13 3.25 9.13zM244.68 110.04c0-2.09.06-4.56-1.51-6.12-.91-.92-2.26-1.42-3.87-1.42h-5.21v15.51h5.21c1.61 0 2.96-.5 3.87-1.42 1.58-1.56 1.51-4.45 1.51-6.55zm-1.17 0c0 1.72.09 4.47-1.16 5.73-.89.91-2.1 1.2-3.33 1.2h-3.75v-13.42h3.75c1.24 0 2.44.29 3.33 1.2 1.25 1.26 1.16 3.57 1.16 5.29zM262.2 118.02v-1.05h-8.23v-6.25h7.01v-1.04h-7.01v-6.13h8.23v-1.05h-9.41v15.52zM15.17 145.78c0-1.25-.5-2.31-1.35-3.01-.66-.55-1.31-.8-2.77-1.02l-1.67-.26c-.87-.13-1.77-.5-2.32-.96-.54-.45-.8-1.13-.8-2.02 0-1.96 1.35-3.21 3.6-3.21 1.85 0 2.81.59 3.77 1.44l.76-.77c-1.33-1.15-2.55-1.67-4.47-1.67-2.96 0-4.82 1.66-4.82 4.25 0 1.2.4 2.16 1.22 2.86.65.57 1.6.96 2.77 1.14l1.81.29c1.26.19 1.67.34 2.24.83.57.5.85 1.26.85 2.17 0 2.03-1.55 3.21-3.98 3.21-1.87 0-3.01-.44-4.4-1.83l-.83.83c1.41 1.41 2.86 2.05 5.17 2.05 3.21-.02 5.22-1.71 5.22-4.32zM33.19 144.91v-10.48h-1.17v10.33c0 2.57-1.66 4.27-4.14 4.27-2.48 0-4.14-1.7-4.14-4.27v-10.33h-1.18v10.48c0 3.03 2.21 5.17 5.32 5.17 3.11 0 5.31-2.14 5.31-5.17zM52.06 138.9c0-2.83-2-4.47-4.68-4.47h-5.69v15.51h1.17v-6.58h4.52c2.68 0 4.68-1.63 4.68-4.46zm-1.18 0c0 2.33-1.51 3.42-3.64 3.42h-4.38v-6.84h4.38c2.13-.01 3.64 1.08 3.64 3.42zM68.77 149.94v-1.05h-8.24v-6.24h7.02v-1.05h-7.02v-6.13h8.24v-1.04h-9.41v15.51zM86.83 149.94l-3.75-7.17c2.17-.37 3.57-1.87 3.57-4.18 0-2.71-1.92-4.17-4.44-4.17h-5.91v15.51h1.18v-7.14h4.27l3.71 7.14h1.37zm-1.36-11.32c0 2.13-1.44 3.13-3.42 3.13h-4.57v-6.28h4.57c1.99 0 3.42 1.01 3.42 3.15zM104.52 145.55h-1.16c-.45 2.14-2.02 3.48-4.12 3.48-1.11 0-2.15-.41-2.94-1.2-1.11-1.11-1.2-2.31-1.2-5.64 0-3.33.09-4.53 1.2-5.64.79-.79 1.83-1.2 2.94-1.2 2.09 0 3.62 1.35 4.08 3.48h1.2c-.5-2.81-2.51-4.53-5.28-4.53-1.45 0-2.85.56-3.87 1.59-1.42 1.42-1.44 2.79-1.44 6.3s.02 4.88 1.44 6.29c1.02 1.02 2.42 1.59 3.87 1.59 2.73.01 4.78-1.72 5.28-4.52zM122.51 142.19c0-3.51-.02-4.88-1.44-6.3-1.02-1.02-2.42-1.59-3.88-1.59s-2.86.56-3.88 1.59c-1.41 1.42-1.44 2.79-1.44 6.3s.02 4.88 1.44 6.29c1.02 1.02 2.42 1.59 3.88 1.59s2.86-.57 3.88-1.59c1.41-1.41 1.44-2.78 1.44-6.29zm-1.18 0c0 3.33-.09 4.53-1.2 5.64-.79.79-1.83 1.2-2.94 1.2-1.11 0-2.16-.41-2.94-1.2-1.11-1.11-1.21-2.31-1.21-5.64 0-3.33.09-4.53 1.21-5.64.78-.79 1.82-1.2 2.94-1.2 1.11 0 2.16.41 2.94 1.2 1.12 1.11 1.2 2.31 1.2 5.64zM143.64 149.94v-15.51h-1.17l-5.28 11.96-5.4-11.96h-1.18v15.51h1.18v-12.78l4.79 10.61h1.18l4.71-10.61v12.78zM162.73 138.9c0-2.83-2-4.47-4.68-4.47h-5.69v15.51h1.18v-6.58h4.51c2.68 0 4.68-1.63 4.68-4.46zm-1.18 0c0 2.33-1.51 3.42-3.64 3.42h-4.37v-6.84h4.37c2.13-.01 3.64 1.08 3.64 3.42zM180.44 144.91v-10.48h-1.17v10.33c0 2.57-1.66 4.27-4.14 4.27-2.48 0-4.14-1.7-4.14-4.27v-10.33h-1.18v10.48c0 3.03 2.21 5.17 5.32 5.17 3.11 0 5.31-2.14 5.31-5.17zM197.64 135.47v-1.04h-10.43v1.04h4.62v14.47h1.17v-14.47zM213.7 149.94l-5.71-15.51h-1.05l-5.71 15.51h1.26l1.35-3.77h7.24l1.35 3.77h1.27zm-2.99-4.81h-6.49l3.25-9.13 3.24 9.13zM230.11 145.55h-1.16c-.45 2.14-2.02 3.48-4.11 3.48-1.12 0-2.17-.41-2.94-1.2-1.11-1.11-1.2-2.31-1.2-5.64 0-3.33.09-4.53 1.2-5.64.78-.79 1.83-1.2 2.94-1.2 2.09 0 3.61 1.35 4.07 3.48h1.2c-.5-2.81-2.51-4.53-5.27-4.53-1.47 0-2.86.56-3.88 1.59-1.42 1.42-1.44 2.79-1.44 6.3s.02 4.88 1.44 6.29c1.02 1.02 2.41 1.59 3.88 1.59 2.72.01 4.77-1.72 5.27-4.52zM238.07 134.43h1.17v15.51h-1.17zM255.22 129.75h-1.46l-2.12 3.21h1.27l2.31-3.21zm2.77 12.44c0-3.51-.02-4.88-1.44-6.3-1.02-1.02-2.41-1.59-3.88-1.59-1.46 0-2.85.56-3.87 1.59-1.42 1.42-1.43 2.79-1.43 6.3s.01 4.88 1.43 6.29c1.02 1.02 2.41 1.59 3.87 1.59 1.47 0 2.86-.57 3.88-1.59 1.42-1.41 1.44-2.78 1.44-6.29zm-1.18 0c0 3.33-.09 4.53-1.2 5.64-.79.79-1.82 1.2-2.94 1.2-1.1 0-2.15-.41-2.94-1.2-1.11-1.11-1.2-2.31-1.2-5.64 0-3.33.09-4.53 1.2-5.64.79-.79 1.83-1.2 2.94-1.2 1.12 0 2.16.41 2.94 1.2 1.11 1.11 1.2 2.31 1.2 5.64zM277.4 149.94v-15.51h-1.18v13.44l-8.95-13.44h-1.18v15.51h1.18v-13.48l8.95 13.48z"/></g><path fill="#00AEEF" d="M243.29 0c-14.59 0-27.36 7.78-34.4 19.42-3.4 5.73-9.46 9.6-16.38 9.6-6.82 0-12.87-3.84-16.28-9.46-7.03-11.71-19.85-19.56-34.49-19.56-14.6 0-27.38 7.78-34.42 19.43v-.01c-3.39 5.73-9.44 9.6-16.35 9.6-6.84 0-12.85-3.78-16.26-9.39-7.02-11.76-19.85-19.63-34.52-19.63-22.19 0-40.19 17.99-40.19 40.19 0 22.19 18 40.18 40.19 40.18 14.61 0 27.39-7.8 34.42-19.46v.01c3.4-5.73 9.47-9.36 16.38-9.36 6.9 0 12.93 3.71 16.33 9.42v-.03c7.04 11.64 19.81 19.43 34.42 19.43 14.63 0 27.44-7.83 34.46-19.53 3.41-5.65 9.47-9.28 16.34-9.28 6.81 0 12.83 3.65 16.25 9.24 7.01 11.72 19.84 19.58 34.5 19.58 22.19 0 40.18-17.99 40.18-40.18-.01-22.22-18-40.21-40.18-40.21zm-194.08 61.11l-8.8-17.58h-7.92v17.58h-6.33v-41.75h16.19c7.92 0 12.96 5.1 12.96 12.2 0 5.98-3.63 9.79-8.33 11.09l9.62 18.47h-7.39zm105.85-36.04h-20.35v12.2h17.36v5.63h-17.36v12.55h20.35v5.69h-26.68v-41.76h26.68v5.69zm88.11 36.41c-6.27 0-10.79-1.46-14.78-5.51l4.22-4.17c3.05 3.05 6.4 3.99 10.67 3.99 5.45 0 8.62-2.35 8.62-6.4 0-1.82-.52-3.34-1.64-4.34-1.06-.99-2.11-1.4-4.57-1.75l-4.93-.71c-3.4-.47-6.09-1.64-7.91-3.34-2.06-1.94-3.06-4.58-3.06-7.98 0-7.28 5.28-12.26 13.96-12.26 5.52 0 9.39 1.4 12.96 4.75l-4.05 3.98c-2.58-2.46-5.57-3.22-9.09-3.22-4.93 0-7.63 2.81-7.63 6.51 0 1.52.48 2.87 1.59 3.87 1.05.94 2.75 1.64 4.69 1.94l4.75.7c3.87.59 6.05 1.52 7.8 3.11 2.29 1.99 3.4 4.98 3.4 8.56.01 7.7-6.27 12.27-15 12.27zm-194.2-29.86c0-4.11-2.87-6.57-7.09-6.57h-9.39v13.08h9.39c4.22 0 7.09-2.4 7.09-6.51z"/></svg>